<svg xmlns="http://www.w3.org/2000/svg" width="360" height="164" fill="none" viewBox="0 0 360 164" class="MobileArt-sc-1bsnov6-0 bzbQuv"><path fill="#393B52" d="M28 40h2.893l6.169-20h-2.893L28 40ZM34.938 40h2.893L44 20h-2.893l-6.169 20Z"></path><path fill="#83DB83" fill-rule="evenodd" d="M100.09 42.167c-.1.462-.285 1.075-.543 1.823-.31.9-.702 1.927-1.118 3.017l-.189.495c-.482 1.266-.982 2.597-1.398 3.86-.414 1.256-.756 2.483-.91 3.538a6.73 6.73 0 0 0-.07 1.51c.039.462.155.944.43 1.354.294.437.73.732 1.273.847.511.108 1.066.047 1.632-.111 1.124-.313 2.573-1.088 4.409-2.355a.9.9 0 0 0 .227-1.266.933.933 0 0 0-1.286-.223c-1.795 1.238-3.036 1.867-3.852 2.094-.404.113-.633.106-.742.083-.078-.016-.098-.038-.122-.073-.042-.063-.105-.21-.13-.502a4.979 4.979 0 0 1 .059-1.1c.13-.9.435-2.01.838-3.235.401-1.22.888-2.516 1.37-3.782l.188-.492c.415-1.087.818-2.143 1.139-3.074.361-1.045.654-2.03.716-2.754.028-.33.031-.816-.223-1.223a1.257 1.257 0 0 0-.673-.53 1.485 1.485 0 0 0-.768-.033c-.485.1-.944.365-1.35.667-.42.312-.854.716-1.293 1.178-.878.922-1.842 2.143-2.825 3.486-1.344 1.834-2.768 3.96-4.1 5.946-.613.913-1.206 1.798-1.763 2.611-.892 1.305-1.687 2.422-2.334 3.218-.067.083-.132.16-.194.234.156-1.002.514-2.524 1.135-4.698 1.274-4.465 1.786-7.455 1.73-9.285-.026-.883-.188-1.701-.663-2.243-.263-.299-.61-.497-1.012-.558a2.065 2.065 0 0 0-1.054.138c-.602.232-1.197.706-1.745 1.258-.564.568-1.146 1.287-1.714 2.1-1.136 1.624-2.258 3.68-3.1 5.783a.905.905 0 0 0 .52 1.18.928.928 0 0 0 1.197-.513c.792-1.978 1.85-3.912 2.903-5.42.528-.753 1.044-1.385 1.514-1.858.486-.49.861-.746 1.1-.838a.795.795 0 0 1 .036-.013c.06.124.155.424.173 1.038.047 1.533-.394 4.296-1.663 8.739-.705 2.47-1.107 4.214-1.242 5.349-.064.546-.082 1.057.02 1.461.053.206.16.485.407.706.283.252.632.327.944.29a1.65 1.65 0 0 0 .666-.249 3.4 3.4 0 0 0 .492-.38c.308-.282.643-.657.99-1.084.7-.86 1.531-2.031 2.425-3.339.577-.843 1.182-1.745 1.801-2.668 1.32-1.97 2.707-4.038 4.028-5.842.968-1.321 1.878-2.468 2.675-3.306.39-.41.739-.73 1.039-.956ZM85.635 58.216Zm.78.34c.002.006.002.006 0 0Z" clip-rule="evenodd"></path><path fill="#FFD652" fill-rule="evenodd" d="M312 61.5c9.665 0 17.5-7.835 17.5-17.5s-7.835-17.5-17.5-17.5-17.5 7.835-17.5 17.5 7.835 17.5 17.5 17.5Zm0 2.5c11.046 0 20-8.954 20-20s-8.954-20-20-20-20 8.954-20 20 8.954 20 20 20Z" clip-rule="evenodd"></path><g clip-path="url(#a)"><rect width="72" height="72" x="144" y="44" fill="#FFA000" fill-opacity="0.16" rx="36"></rect><path fill="#3F8AE0" d="M186.161 56.306s-3.681-3.09-7.603-3.09c-5.061 0-10.874 3.326-12.09 10.63-.883 5.282 2.272 6.047-5.733 13.564-4.925 4.628-2.946 7.248-2.946 7.248 14.258 6.744 28.991 7.613 44.156 2.957 0 0 1.895-3.814-4.323-11.868-1.574-2.032-1.433-9.368-1.606-12.113-.353-4.864-4.231-7.877-9.855-7.328Z"></path><path fill="#73B4FF" d="M214.132 125.865c-.457-2.184-5.668-16.124-6.125-17.699a13.127 13.127 0 0 0-9.024-8.967L185.64 95.4l-5.721 1.17-6.824-1.17L160.86 99.2a13.152 13.152 0 0 0-5.675 3.319 13.117 13.117 0 0 0-3.353 5.648c-.458 1.575-5.805 16.685-6.262 18.873 10.216 5.02 41.735 9.2 68.562-1.174Z"></path><path fill="#FFB487" d="M184.708 85.58a20.256 20.256 0 0 0-5.291-4.764 20.212 20.212 0 0 0-5.294 4.764c-.057 4.007.63 9.131-2.999 10.418 1.802 2.04 5.026 7.44 8.285 7.408 3.26.032 6.495-5.369 8.298-7.408-3.629-1.29-2.939-6.411-2.999-10.418Z"></path><path fill="#D47455" d="M173.962 89.987c3.396.581 8.972.285 10.786-2.404a6.744 6.744 0 0 1-.309-1.134 19.885 19.885 0 0 0-3.384-3.714c-.353.192-.722.4-1.104.62l-2.653 1.816c-1.064.833-2.116 1.398-3.135 2.476 0 .153-.032.337-.052.537-.053.601-.097 1.21-.149 1.803Z"></path><path fill="#FFB487" d="M170.96 73.595c-4.954-3.854-6.732 4.66-.542 5.333.401-1.739.839-3.482.542-5.333Z"></path><path fill="#393B52" d="M169.506 75.647a.257.257 0 0 1-.253-.205.992.992 0 0 0-1.172-.837.265.265 0 0 1-.285-.236.265.265 0 0 1 .233-.285 1.512 1.512 0 0 1 1.734 1.25.263.263 0 0 1-.201.309l-.056.004Z"></path><path fill="#FFB487" d="M170.289 79.169c-.044-1.795.185-9.3 1.325-11.007 4.472-6.708 11.432-1.427 14.997-1.33.947.024 1.521-.117 1.85-.578.494 6.772.422 14.425.35 14.425-.803 4.408-3.685 8.76-9.988 8.587a7.41 7.41 0 0 1-.722-.036c-5.881-.473-7.84-6.663-7.812-10.061Z"></path><path fill="#393B52" d="M187.049 73.275a.234.234 0 0 1-.125-.032 5.14 5.14 0 0 0-4.118-.36.265.265 0 0 1-.342-.145.26.26 0 0 1 .145-.337 5.55 5.55 0 0 1 4.568.4.262.262 0 0 1 .1.353.257.257 0 0 1-.228.12ZM177.21 72.43a.3.3 0 0 1-.101 0 6.973 6.973 0 0 0-4.191-.458.26.26 0 0 1-.148-.5 7.339 7.339 0 0 1 4.54.476.265.265 0 0 1 .141.142c.013.031.02.065.019.1a.244.244 0 0 1-.02.099.258.258 0 0 1-.24.14ZM185.498 76.135c.062-.876-.379-1.621-.985-1.664-.606-.043-1.147.633-1.21 1.509-.062.876.379 1.621.985 1.664.606.043 1.148-.633 1.21-1.509Z"></path><path fill="#393B52" d="M187.048 74.136c-.107.227-.242.44-.401.633-.169.203-.36.385-.57.545a3.216 3.216 0 0 1-.727.4c-.269.11-.551.189-.838.233h-.033a.717.717 0 1 1-.244-1.414.728.728 0 0 1 .349.024c.185.067.378.111.574.132.209.028.421.028.63 0a2.62 2.62 0 0 0 .646-.188c.22-.094.427-.217.614-.365ZM176.058 75.364c.062-.877-.379-1.622-.985-1.665-.606-.043-1.148.633-1.21 1.51-.062.876.379 1.621.985 1.664.606.043 1.147-.633 1.21-1.51Z"></path><path fill="#393B52" d="M172.894 72.682a2.735 2.735 0 0 0 1.028.906 2.472 2.472 0 0 0 1.184.26.717.717 0 0 1 .719.717.715.715 0 0 1-.44.665.721.721 0 0 1-.612-.028h-.028a3.763 3.763 0 0 1-.727-.48 3.13 3.13 0 0 1-.566-.61 3.254 3.254 0 0 1-.373-.693 2.884 2.884 0 0 1-.185-.737ZM179.201 80.587h-.069c-.293-.08-1.26-.4-1.465-1.022a.883.883 0 0 1 .217-.849 5.84 5.84 0 0 0 1.044-4.007.245.245 0 0 1 .006-.1.255.255 0 0 1 .218-.188.262.262 0 0 1 .293.228 6.329 6.329 0 0 1-1.16 4.407c-.168.205-.132.321-.12.361.076.245.53.521 1.104.673a.263.263 0 0 1 .184.32.257.257 0 0 1-.252.177Z"></path><path fill="#E34450" d="M178.928 83.977a4.555 4.555 0 0 1-2.308-.601.519.519 0 0 1 .165-.946.524.524 0 0 1 .393.068c.08.048 1.858 1.114 4.038-.276a.518.518 0 0 1 .581.012.523.523 0 0 1-.019.865 5.27 5.27 0 0 1-2.85.878Z"></path><path fill="#FFB487" d="M188.747 75.054c5.515-3.001 5.876 5.69-.338 5.349-.112-1.783-.261-3.574.338-5.35Z"></path><path fill="#393B52" d="M189.887 77.317a.28.28 0 0 1-.097-.02.259.259 0 0 1-.148-.337 1.514 1.514 0 0 1 1.915-.949.264.264 0 0 1 .184.32.266.266 0 0 1-.321.185.987.987 0 0 0-1.293.633.255.255 0 0 1-.24.168Z"></path><path fill="#fff" d="M174.496 78.139h-.317a3.806 3.806 0 0 1-2.589-1.328 3.793 3.793 0 0 1 .44-5.352 3.808 3.808 0 0 1 5.361.44 3.797 3.797 0 0 1 .485 4.19 3.78 3.78 0 0 1-3.38 2.05Zm0-7.076a3.295 3.295 0 0 0-2.223.87 3.28 3.28 0 0 0-1.048 2.143 3.286 3.286 0 0 0 3.006 3.534 3.259 3.259 0 0 0 2.409-.77 3.27 3.27 0 0 0 .377-4.619 3.29 3.29 0 0 0-2.529-1.158h.008ZM184.901 78.992h-.313a3.784 3.784 0 0 1-2.589-1.33 3.754 3.754 0 0 1-.892-2.765 3.802 3.802 0 0 1 1.331-2.586 3.814 3.814 0 0 1 2.772-.892 3.8 3.8 0 0 1 3.48 4.1 3.8 3.8 0 0 1-1.218 2.471c-.702.644-1.619 1-2.571 1.002Zm0-7.076a3.29 3.29 0 0 0-3.131 4.29c.133.412.347.795.63 1.123a3.27 3.27 0 0 0 2.236 1.15 3.292 3.292 0 0 0 2.392-.77 3.276 3.276 0 0 0 1.148-2.23 3.286 3.286 0 0 0-3.006-3.534 1.07 1.07 0 0 0-.273-.029h.004Z"></path><path fill="#fff" d="M181.328 75.162c-1.256-1.675-3.235-.585-3.319-.537l-.257-.453c.024 0 2.46-1.366 4.014.677l-.438.313Z"></path><path fill="#FFB487" d="M179.915 105.117c9.357 0 17.309-2.308 20.224-5.521a14.165 14.165 0 0 0-1.156-.4l-13.344-3.8-5.72 1.17-6.824-1.17-12.235 3.8a9.862 9.862 0 0 0-1.164.4c2.91 3.213 10.862 5.521 20.219 5.521Z"></path><path fill="#3F8AE0" d="M185.748 58.016V57.7c0-.108 0-.229-.024-.34a6.949 6.949 0 0 0-.096-.69 7.141 7.141 0 0 0-.402-1.334 5.36 5.36 0 0 0-1.63-2.212 6 6 0 0 0-2.617-1.154 10.565 10.565 0 0 0-2.978-.124c.993-.216 2.012-.29 3.026-.22a6.504 6.504 0 0 1 2.967.93c.457.283.874.626 1.24 1.02.364.402.679.844.939 1.32.257.473.466.971.627 1.486.08.256.148.517.204.801.028.132.053.264.077.4.024.137.04.265.052.437l-1.385-.004Z"></path></g><path fill="#FF6680" d="m154.411 66.505-8.547-5.34c-.879-.55-1.318-.824-1.762-.721-.443.102-.718.541-1.267 1.42l-5.34 8.547c-1.197 1.915-1.795 2.872-1.369 3.47.426.598 1.526.344 3.727-.164l13.888-3.206c2.2-.508 3.3-.762 3.421-1.486.121-.725-.836-1.323-2.751-2.52Z"></path><path fill="#70B2FF" d="M252 51c0-.932 0-1.398.152-1.765.203-.49.593-.88 1.083-1.083.367-.152.833-.152 1.765-.152.932 0 1.398 0 1.765.152.49.203.88.593 1.083 1.083.152.367.152.833.152 1.765 0 .932 0 1.398-.152 1.765-.203.49-.593.88-1.083 1.083-.367.152-.833.152-1.765.152-.932 0-1.398 0-1.765-.152a2.002 2.002 0 0 1-1.083-1.083C252 52.398 252 51.932 252 51Z"></path><path fill="#FF962E" d="M69.714 124.253v3.481l-1.58.013c-2.278.013-4.134 1.806-4.134 4.1A4.15 4.15 0 0 0 68.147 136c2.265 0 4.122-1.872 4.122-4.153v-1.542h3.462v1.542c0 2.281 1.857 4.153 4.135 4.153 2.29 0 4.134-1.872 4.134-4.153 0-2.294-1.843-4.087-4.134-4.1l-1.58-.013v-3.481h1.58c2.29-.013 4.134-1.819 4.134-4.113a4.136 4.136 0 0 0-4.134-4.14c-2.278 0-4.135 1.872-4.135 4.14v1.542H72.27v-1.542c0-2.268-1.857-4.14-4.122-4.14A4.139 4.139 0 0 0 64 120.14c0 2.294 1.856 4.1 4.134 4.113h1.58Zm-1.5-2.544c-.91 0-1.62-.699-1.62-1.556 0-.87.698-1.569 1.553-1.569.83 0 1.554.712 1.554 1.635v1.49h-1.488Zm11.573 0h-1.488v-1.49c0-.923.724-1.635 1.567-1.635.856 0 1.54.699 1.54 1.569 0 .857-.698 1.556-1.62 1.556Zm-7.505 6.038v-3.507h3.45v3.507h-3.45Zm-4.069 2.531h1.488v1.49c0 .923-.724 1.635-1.553 1.635a1.56 1.56 0 0 1-1.554-1.569c0-.857.71-1.556 1.62-1.556Zm11.574 0c.921 0 1.62.699 1.62 1.556a1.55 1.55 0 0 1-1.541 1.569c-.843 0-1.567-.712-1.567-1.635v-1.49h1.488Z"></path><path fill="#3F8AE0" d="M278 84c-.69 0-1.25.56-1.25 1.25v7.5h-7.5a1.25 1.25 0 0 0 0 2.5h7.5v7.5a1.25 1.25 0 0 0 2.5 0v-7.5h7.5a1.25 1.25 0 0 0 0-2.5h-7.5v-7.5c0-.69-.56-1.25-1.25-1.25Z"></path><defs><clipPath id="a"><rect width="72" height="72" x="144" y="44" fill="#fff" rx="36"></rect></clipPath></defs></svg>