<svg width="233" height="25" fill="none" xmlns="http://www.w3.org/2000/svg"><path d="M0 12.504c0-5.43 0-8.145 1.687-9.833C3.374.984 6.09.984 11.52.984h.96c5.43 0 8.146 0 9.833 1.687C24 4.36 24 7.074 24 12.504v.96c0 5.43 0 8.146-1.687 9.833-1.687 1.687-4.402 1.687-9.833 1.687h-.96c-5.43 0-8.146 0-9.833-1.687C0 21.61 0 18.895 0 13.464v-.96Z" fill="#07F"></path><path d="M12.77 18.274c-5.47 0-8.59-3.75-8.72-9.99h2.74c.09 4.58 2.11 6.52 3.71 6.92v-6.92h2.58v3.95c1.58-.17 3.24-1.97 3.8-3.95h2.58c-.43 2.44-2.23 4.24-3.51 4.98 1.28.6 3.33 2.17 4.11 5.01h-2.84c-.61-1.9-2.13-3.37-4.14-3.57v3.57h-.31Z" fill="#fff"></path><path d="M32.007 22.264v-5.501h.275c1.129 0 1.792-1.051 1.99-3.153l.55-5.629h8.061v8.782h1.905v5.501h-2.434v-3.28h-7.913v3.28h-2.434Zm8.443-5.501v-6.56h-3.385l-.339 3.365c-.085.86-.204 1.537-.36 2.031-.155.494-.373.882-.656 1.164h4.74ZM48.5 7.981h8.062v11.004h-2.434v-8.782h-3.364l-.254 4.634c-.07 1.354-.43 2.405-1.08 3.153-.634.734-1.502 1.1-2.602 1.1-.282 0-.606-.02-.973-.063l-.233-2.328c.17.014.473.021.91.021.536 0 .917-.134 1.143-.402.24-.282.38-.761.423-1.439l.402-6.898ZM68.157 7.981v11.004h-2.434V15.45h-1.946l-2.328 3.534h-2.772l2.624-3.915c-.72-.282-1.284-.72-1.693-1.312-.409-.593-.613-1.277-.613-2.052 0-.72.183-1.362.55-1.926a3.648 3.648 0 0 1 1.523-1.312c.65-.324 1.383-.487 2.2-.487h4.889Zm-2.434 5.354v-3.238H63.27c-.55 0-.995.149-1.333.445-.339.296-.508.684-.508 1.164 0 .493.17.888.508 1.184.338.297.783.445 1.333.445h2.454ZM75.987 23.322V7.982h1.82l.507 1.777c.452-.55 1.03-1.016 1.736-1.397.705-.395 1.516-.592 2.433-.592 1.03 0 1.953.246 2.772.74a4.907 4.907 0 0 1 1.904 2.031c.466.86.698 1.841.698 2.942 0 1.1-.232 2.087-.698 2.962a5.082 5.082 0 0 1-1.904 2.031c-.819.48-1.742.72-2.772.72-.889 0-1.679-.177-2.37-.529-.691-.367-1.255-.818-1.693-1.354v6.009h-2.433Zm5.903-6.305c1.016 0 1.841-.325 2.476-.974.635-.663.952-1.516.952-2.56s-.317-1.89-.952-2.54c-.635-.662-1.46-.994-2.476-.994-1.03 0-1.869.332-2.518.995-.635.648-.952 1.495-.952 2.539 0 1.043.317 1.897.952 2.56.65.649 1.489.974 2.518.974ZM94.463 7.77c1.411 0 2.519.444 3.323 1.333.818.874 1.227 2.109 1.227 3.703v6.178h-1.799l-.507-1.735c-.31.522-.77.98-1.376 1.376-.606.38-1.326.57-2.158.57-.734 0-1.397-.147-1.99-.444a3.31 3.31 0 0 1-1.354-1.248c-.324-.536-.486-1.143-.486-1.82 0-1.043.409-1.876 1.227-2.496.833-.635 2.039-.953 3.618-.953h2.37c-.056-.733-.282-1.312-.677-1.735-.38-.437-.896-.656-1.544-.656-.523 0-.974.127-1.355.381-.38.254-.663.565-.846.931l-2.243-.38c.268-.932.818-1.665 1.65-2.201.847-.536 1.82-.804 2.92-.804Zm-.719 9.373c.846 0 1.53-.275 2.053-.825.521-.55.782-1.277.782-2.18h-2.306c-1.65 0-2.476.48-2.476 1.44 0 .48.177.86.53 1.142.352.282.825.424 1.417.424ZM107.914 13.377c.607.183 1.107.5 1.502.952.409.438.614.98.614 1.63 0 .606-.19 1.156-.571 1.65-.367.48-.903.867-1.608 1.164-.691.282-1.489.423-2.391.423-1.199 0-2.229-.282-3.09-.847-.846-.564-1.403-1.311-1.671-2.243l2.243-.38c.239.493.557.853.952 1.079.395.212.91.317 1.544.317.692 0 1.221-.12 1.587-.36.381-.24.572-.57.572-.994 0-.832-.72-1.248-2.159-1.248h-1.375v-2.116h1.375c.649 0 1.143-.106 1.482-.318.338-.225.507-.529.507-.91 0-.409-.176-.733-.529-.973-.352-.24-.789-.36-1.311-.36-.522 0-.995.127-1.418.381-.409.254-.727.6-.952 1.037l-2.243-.38c.324-1.017.903-1.785 1.735-2.307.846-.536 1.834-.804 2.962-.804.804 0 1.524.134 2.158.402.635.268 1.129.642 1.482 1.121.366.48.55 1.023.55 1.63 0 .606-.184 1.128-.55 1.565a2.613 2.613 0 0 1-1.397.889ZM112.355 23.322V7.982h1.82l.508 1.777c.451-.55 1.03-1.016 1.735-1.397.705-.395 1.517-.592 2.433-.592 1.03 0 1.954.246 2.772.74a4.913 4.913 0 0 1 1.905 2.031c.465.86.698 1.841.698 2.942 0 1.1-.233 2.087-.698 2.962a5.088 5.088 0 0 1-1.905 2.031c-.818.48-1.742.72-2.772.72-.888 0-1.678-.177-2.369-.529-.692-.367-1.256-.818-1.693-1.354v6.009h-2.434Zm5.904-6.305c1.016 0 1.841-.325 2.476-.974.634-.663.952-1.516.952-2.56s-.318-1.89-.952-2.54c-.635-.662-1.46-.994-2.476-.994-1.03 0-1.869.332-2.518.995-.635.648-.952 1.495-.952 2.539 0 1.043.317 1.897.952 2.56.649.649 1.488.974 2.518.974ZM130.832 7.77c1.411 0 2.518.444 3.322 1.333.818.874 1.227 2.109 1.227 3.703v6.178h-1.798l-.508-1.735c-.31.522-.769.98-1.375 1.376-.607.38-1.326.57-2.159.57-.733 0-1.396-.147-1.989-.444a3.308 3.308 0 0 1-1.354-1.248 3.449 3.449 0 0 1-.487-1.82c0-1.043.409-1.876 1.228-2.496.832-.635 2.038-.953 3.618-.953h2.37c-.057-.733-.282-1.312-.677-1.735-.381-.437-.896-.656-1.545-.656-.522 0-.973.127-1.354.381a2.412 2.412 0 0 0-.846.931l-2.243-.38c.268-.932.818-1.665 1.65-2.201.846-.536 1.82-.804 2.92-.804Zm-.719 9.373c.846 0 1.53-.275 2.052-.825.522-.55.783-1.277.783-2.18h-2.306c-1.651 0-2.476.48-2.476 1.44 0 .48.176.86.529 1.142.353.282.825.424 1.418.424ZM143.669 9.102c.945 0 1.792.212 2.539.635a4.532 4.532 0 0 1 1.757 1.778c.423.761.635 1.629.635 2.602 0 .974-.24 1.848-.72 2.624a4.847 4.847 0 0 1-1.947 1.82c-.832.423-1.777.635-2.835.635-.903 0-1.721-.163-2.455-.487a5 5 0 0 1-1.862-1.481c-.86-1.129-1.29-2.688-1.29-4.677 0-2.186.479-3.921 1.439-5.205.973-1.284 2.588-2.024 4.845-2.222.494-.042.868-.113 1.122-.211.267-.1.458-.233.571-.402.113-.184.197-.438.254-.762l2.137.19c-.056.861-.268 1.531-.635 2.01a2.88 2.88 0 0 1-1.375.995c-.565.198-1.249.332-2.053.402-.945.085-1.686.275-2.221.571-.537.283-.917.67-1.143 1.164-.226.494-.374 1.136-.445 1.926.424-.635.932-1.107 1.524-1.418.607-.324 1.326-.487 2.158-.487Zm-.55 7.914c.889 0 1.608-.26 2.159-.783.564-.536.846-1.234.846-2.095 0-.846-.282-1.53-.846-2.052-.551-.536-1.27-.804-2.159-.804-.903 0-1.636.268-2.201.804-.55.522-.825 1.206-.825 2.052 0 .86.275 1.56.825 2.095.565.522 1.298.783 2.201.783ZM155.851 19.196c-1.128 0-2.144-.24-3.047-.72a5.475 5.475 0 0 1-2.095-2.03c-.493-.876-.74-1.863-.74-2.963s.247-2.081.74-2.942a5.281 5.281 0 0 1 2.095-2.03c.903-.495 1.919-.741 3.047-.741 1.129 0 2.137.246 3.026.74a5.101 5.101 0 0 1 2.095 2.031c.508.86.762 1.841.762 2.942 0 1.1-.254 2.087-.762 2.962a5.28 5.28 0 0 1-2.095 2.031c-.889.48-1.897.72-3.026.72Zm0-2.222c.988 0 1.792-.317 2.412-.952.621-.649.931-1.495.931-2.54 0-1.043-.31-1.882-.931-2.517-.62-.65-1.424-.974-2.412-.974-.987 0-1.791.325-2.412.974-.621.635-.931 1.474-.931 2.518 0 1.043.31 1.89.931 2.539.621.635 1.425.952 2.412.952ZM168.621 18.985h-2.434v-8.782h-3.809V7.981h10.051v2.222h-3.808v8.782ZM180.786 15.155a7.14 7.14 0 0 1-1.164.36 6.878 6.878 0 0 1-1.312.126c-1.354 0-2.391-.38-3.11-1.142-.72-.762-1.079-1.848-1.079-3.26V7.982h2.433v3.259c0 .734.176 1.29.529 1.671.352.381.874.572 1.566.572.86 0 1.573-.162 2.137-.487V7.981h2.433v11.004h-2.433v-3.83ZM189.408 18.985h-3.449V7.98h2.328v8.168h.338l4.105-8.168h3.449v11.004h-2.327v-8.168h-.339l-4.105 8.168ZM208.966 18.985h-3.195l-3.809-4.38h-.593v4.38h-2.433V7.98h2.433v4.275h.593l3.682-4.275h2.899l-4.634 5.29 5.057 5.713ZM215.178 19.196c-1.128 0-2.144-.24-3.047-.72a5.466 5.466 0 0 1-2.094-2.03c-.494-.876-.741-1.863-.741-2.963s.247-2.081.741-2.942a5.272 5.272 0 0 1 2.094-2.03c.903-.495 1.919-.741 3.047-.741 1.13 0 2.138.246 3.026.74a5.107 5.107 0 0 1 2.095 2.031c.509.86.761 1.841.761 2.942 0 1.1-.252 2.087-.761 2.962a5.287 5.287 0 0 1-2.095 2.031c-.888.48-1.896.72-3.026.72Zm0-2.222c.988 0 1.792-.317 2.412-.952.621-.649.931-1.495.931-2.54 0-1.043-.31-1.882-.931-2.517-.62-.65-1.424-.974-2.412-.974-.987 0-1.791.325-2.412.974-.621.635-.931 1.474-.931 2.518 0 1.043.31 1.89.931 2.539.621.635 1.425.952 2.412.952ZM230.751 13.271a2.82 2.82 0 0 1 1.396.995c.368.465.55 1.023.55 1.671a2.6 2.6 0 0 1-.506 1.566c-.339.466-.819.832-1.44 1.1-.608.255-1.299.381-2.074.381h-5.501V7.982h5.268c.749 0 1.419.127 2.011.381.593.254 1.052.607 1.376 1.058.324.438.487.945.487 1.524 0 1.058-.523 1.834-1.567 2.327Zm-5.141-3.28v2.392h2.834c.423 0 .768-.106 1.037-.318.269-.226.403-.515.403-.867 0-.353-.134-.642-.403-.868-.269-.226-.614-.338-1.037-.338h-2.834Zm3.067 6.983c.48 0 .862-.12 1.142-.36.298-.253.444-.578.444-.973 0-.409-.146-.733-.444-.973-.28-.254-.662-.381-1.142-.381h-3.067v2.687h3.067Z" fill="#000"></path></svg>