<svg width="28" height="28" viewBox="0 0 28 28" fill="none" xmlns="http://www.w3.org/2000/svg">
<path d="M0 14C0 6.26801 6.26801 0 14 0C21.732 0 28 6.26801 28 14C28 21.732 21.732 28 14 28C6.26801 28 0 21.732 0 14Z" fill="#FFA000"/>
<path d="M14 5.5C18.6944 5.5 22.5 9.30558 22.5 14C22.5 18.6944 18.6944 22.5 14 22.5C9.30558 22.5 5.5 18.6944 5.5 14C5.5 9.30558 9.30558 5.5 14 5.5ZM14 7C10.134 7 7 10.134 7 14C7 17.866 10.134 21 14 21C17.866 21 21 17.866 21 14C21 10.134 17.866 7 14 7ZM17.0668 16.0565C17.367 16.3419 17.3789 16.8167 17.0935 17.1168C16.9243 17.2948 16.6368 17.5349 16.2388 17.7704C15.5759 18.1628 14.8244 18.4 14 18.4C13.1756 18.4 12.4241 18.1628 11.7612 17.7704C11.3632 17.5349 11.0757 17.2948 10.9065 17.1168C10.6211 16.8167 10.633 16.3419 10.9332 16.0565C11.2061 15.797 11.6232 15.7833 11.9112 16.0085L12.1077 16.1884C12.2058 16.2707 12.3469 16.3741 12.5252 16.4796C12.9712 16.7435 13.4669 16.9 14 16.9C14.5331 16.9 15.0288 16.7435 15.4748 16.4796C15.6531 16.3741 15.7942 16.2706 15.8923 16.1884L16.0065 16.0832C16.2919 15.783 16.7667 15.7711 17.0668 16.0565ZM11.625 11.25C12.2463 11.25 12.75 11.7537 12.75 12.375C12.75 12.9963 12.2463 13.5 11.625 13.5C11.0037 13.5 10.5 12.9963 10.5 12.375C10.5 11.7537 11.0037 11.25 11.625 11.25ZM16.375 11.25C16.9963 11.25 17.5 11.7537 17.5 12.375C17.5 12.9963 16.9963 13.5 16.375 13.5C15.7537 13.5 15.25 12.9963 15.25 12.375C15.25 11.7537 15.7537 11.25 16.375 11.25Z" fill="white"/>
</svg>
